<svg xmlns="http://www.w3.org/2000/svg" xmlns:xlink="http://www.w3.org/1999/xlink" viewBox="0 0 555.98 128"><defs><style>.cls-1{isolation:isolate;}.cls-2{fill:#35343a;}.cls-10,.cls-11,.cls-12,.cls-13,.cls-14,.cls-15,.cls-16,.cls-18,.cls-19,.cls-20,.cls-21,.cls-22,.cls-23,.cls-24,.cls-25,.cls-26,.cls-27,.cls-28,.cls-29,.cls-3,.cls-32,.cls-33,.cls-34,.cls-35,.cls-36,.cls-37,.cls-38,.cls-39,.cls-4,.cls-40,.cls-41,.cls-42,.cls-43,.cls-44,.cls-45,.cls-5,.cls-6,.cls-7,.cls-8,.cls-9{fill-rule:evenodd;}.cls-3{fill:url(#linear-gradient);}.cls-4{fill:url(#_ÂÁ_Ï_ÌÌ_È_ËÂÌÚ_92);}.cls-5{fill:url(#_ÂÁ_Ï_ÌÌ_È_ËÂÌÚ_77);}.cls-6{fill:url(#_ÂÁ_Ï_ÌÌ_È_ËÂÌÚ_91);}.cls-7{fill:url(#_ÂÁ_Ï_ÌÌ_È_ËÂÌÚ_101);}.cls-11,.cls-13,.cls-14,.cls-16,.cls-18,.cls-37,.cls-39,.cls-41,.cls-42,.cls-8{mix-blend-mode:multiply;}.cls-11,.cls-18,.cls-39,.cls-42,.cls-8{opacity:0.79;}.cls-8{fill:url(#_ÂÁ_Ï_ÌÌ_È_ËÂÌÚ_146);}.cls-9{fill:url(#_ÂÁ_Ï_ÌÌ_È_ËÂÌÚ_2);}.cls-10{fill:url(#_ÂÁ_Ï_ÌÌ_È_ËÂÌÚ_101-2);}.cls-11{fill:url(#_ÂÁ_Ï_ÌÌ_È_ËÂÌÚ_139);}.cls-12{fill:url(#_ÂÁ_Ï_ÌÌ_È_ËÂÌÚ_4);}.cls-13{fill:#7c4f90;opacity:0.5;}.cls-14,.cls-16,.cls-37,.cls-38,.cls-41{opacity:0.58;}.cls-14{fill:url(#_ÂÁ_Ï_ÌÌ_È_ËÂÌÚ_139-2);}.cls-15{fill:url(#_ÂÁ_Ï_ÌÌ_È_ËÂÌÚ_5);}.cls-16{fill:url(#_ÂÁ_Ï_ÌÌ_È_ËÂÌÚ_127);}.cls-17{fill:url(#_ÂÁ_Ï_ÌÌ_È_ËÂÌÚ_213);}.cls-18{fill:url(#_ÂÁ_Ï_ÌÌ_È_ËÂÌÚ_156);}.cls-19{fill:url(#_ÂÁ_Ï_ÌÌ_È_ËÂÌÚ_4-2);}.cls-20{fill:url(#_ÂÁ_Ï_ÌÌ_È_ËÂÌÚ_56);}.cls-21{fill:url(#_ÂÁ_Ï_ÌÌ_È_ËÂÌÚ_46);}.cls-22{fill:url(#_ÂÁ_Ï_ÌÌ_È_ËÂÌÚ_77-2);}.cls-23{fill:url(#_ÂÁ_Ï_ÌÌ_È_ËÂÌÚ_77-3);}.cls-24{fill:#4f5195;}.cls-25{fill:url(#_ÂÁ_Ï_ÌÌ_È_ËÂÌÚ_91-2);}.cls-26{fill:url(#_ÂÁ_Ï_ÌÌ_È_ËÂÌÚ_101-3);}.cls-27{fill:url(#_ÂÁ_Ï_ÌÌ_È_ËÂÌÚ_92-2);}.cls-28{fill:#a19ddd;}.cls-29{fill:url(#_ÂÁ_Ï_ÌÌ_È_ËÂÌÚ_118);}.cls-30{fill:url(#_ÂÁ_Ï_ÌÌ_È_ËÂÌÚ_109);}.cls-31{fill:#180833;}.cls-32{fill:#220d33;}.cls-33{fill:#b64f6d;}.cls-34,.cls-45,.cls-46{fill:#fff;}.cls-35{fill:url(#_ÂÁ_Ï_ÌÌ_È_ËÂÌÚ_101-4);}.cls-36{fill:#b5526f;}.cls-37{fill:url(#_ÂÁ_Ï_ÌÌ_È_ËÂÌÚ_29);}.cls-38{mix-blend-mode:screen;fill:url(#_ÂÁ_Ï_ÌÌ_È_ËÂÌÚ_132);}.cls-39{fill:url(#_ÂÁ_Ï_ÌÌ_È_ËÂÌÚ_139-3);}.cls-40{fill:url(#_ÂÁ_Ï_ÌÌ_È_ËÂÌÚ_3);}.cls-41{fill:url(#_ÂÁ_Ï_ÌÌ_È_ËÂÌÚ_127-2);}.cls-42{fill:url(#_ÂÁ_Ï_ÌÌ_È_ËÂÌÚ_139-4);}.cls-43{fill:url(#_ÂÁ_Ï_ÌÌ_È_ËÂÌÚ_2-2);}.cls-44{fill:#ff63b8;}.cls-45,.cls-46{mix-blend-mode:soft-light;}</style><linearGradient id="linear-gradient" x1="96.01" y1="119.44" x2="31.99" y2="8.57" gradientUnits="userSpaceOnUse"><stop offset="0" stop-color="#00cdb8"/><stop offset="1" stop-color="#2ae59d"/></linearGradient><linearGradient id="_ÂÁ_Ï_ÌÌ_È_ËÂÌÚ_92" x1="50.56" y1="127.27" x2="50.56" y2="112.46" gradientUnits="userSpaceOnUse"><stop offset="0.03" stop-color="#84a1ff"/><stop offset="0.98" stop-color="#5b72ec"/></linearGradient><linearGradient id="_ÂÁ_Ï_ÌÌ_È_ËÂÌÚ_77" x1="51.28" y1="117.88" x2="51.28" y2="90.13" gradientUnits="userSpaceOnUse"><stop offset="0.02" stop-color="#ffa451"/><stop offset="0.97" stop-color="#ff515e"/></linearGradient><linearGradient id="_ÂÁ_Ï_ÌÌ_È_ËÂÌÚ_91" x1="50.01" y1="127.05" x2="50.01" y2="102.9" gradientUnits="userSpaceOnUse"><stop offset="0.03" stop-color="#d36fff"/><stop offset="0.98" stop-color="#a240ec"/></linearGradient><linearGradient id="_ÂÁ_Ï_ÌÌ_È_ËÂÌÚ_101" x1="50.63" y1="123.33" x2="50.63" y2="97.38" gradientUnits="userSpaceOnUse"><stop offset="0.02" stop-color="#ff7288"/><stop offset="0.97" stop-color="#ff11a1"/></linearGradient><linearGradient id="_ÂÁ_Ï_ÌÌ_È_ËÂÌÚ_146" x1="55.25" y1="127.27" x2="55.25" y2="92.4" gradientUnits="userSpaceOnUse"><stop offset="0" stop-color="#fff"/><stop offset="0.99" stop-color="#943bac"/></linearGradient><linearGradient id="_ÂÁ_Ï_ÌÌ_È_ËÂÌÚ_2" x1="59.55" y1="127.82" x2="59.55" y2="108.37" gradientUnits="userSpaceOnUse"><stop offset="0.02" stop-color="#5bc9ec"/><stop offset="0.97" stop-color="#84a1ff"/></linearGradient><linearGradient id="_ÂÁ_Ï_ÌÌ_È_ËÂÌÚ_101-2" x1="46.32" y1="61.3" x2="46.32" y2="40.1" xlink:href="#_ÂÁ_Ï_ÌÌ_È_ËÂÌÚ_101"/><linearGradient id="_ÂÁ_Ï_ÌÌ_È_ËÂÌÚ_139" x1="46.74" y1="61.3" x2="46.74" y2="40.69" gradientUnits="userSpaceOnUse"><stop offset="0" stop-color="#fff"/><stop offset="0.99" stop-color="#8259ac"/></linearGradient><linearGradient id="_ÂÁ_Ï_ÌÌ_È_ËÂÌÚ_4" x1="85.53" y1="128" x2="85.53" y2="67.12" gradientUnits="userSpaceOnUse"><stop offset="0.02" stop-color="#e4deec"/><stop offset="1" stop-color="#cfbfeb"/></linearGradient><linearGradient id="_ÂÁ_Ï_ÌÌ_È_ËÂÌÚ_139-2" x1="88.18" y1="124.13" x2="88.18" y2="67.12" xlink:href="#_ÂÁ_Ï_ÌÌ_È_ËÂÌÚ_139"/><linearGradient id="_ÂÁ_Ï_ÌÌ_È_ËÂÌÚ_5" x1="68.63" y1="102.54" x2="68.63" y2="38.98" gradientUnits="userSpaceOnUse"><stop offset="0" stop-color="#cfbfeb"/><stop offset="0.98" stop-color="#e4deec"/></linearGradient><linearGradient id="_ÂÁ_Ï_ÌÌ_È_ËÂÌÚ_127" x1="71.09" y1="102.54" x2="71.09" y2="38.98" gradientUnits="userSpaceOnUse"><stop offset="0" stop-color="#cad6ff"/><stop offset="0.99" stop-color="#9775ba"/></linearGradient><linearGradient id="_ÂÁ_Ï_ÌÌ_È_ËÂÌÚ_213" x1="82.67" y1="47.78" x2="82.67" y2="4.65" gradientTransform="matrix(0.99, 0.15, -0.14, 0.93, -25.99, -6.32)" gradientUnits="userSpaceOnUse"><stop offset="0" stop-color="#ff8757"/><stop offset="0.98" stop-color="#ffb34c"/></linearGradient><linearGradient id="_ÂÁ_Ï_ÌÌ_È_ËÂÌÚ_156" x1="82.74" y1="47.78" x2="82.74" y2="4.72" gradientTransform="matrix(0.99, 0.15, -0.14, 0.93, -25.99, -6.32)" gradientUnits="userSpaceOnUse"><stop offset="0" stop-color="#fff"/><stop offset="0.99" stop-color="#b10bac"/></linearGradient><linearGradient id="_ÂÁ_Ï_ÌÌ_È_ËÂÌÚ_4-2" x1="83.55" y1="112.83" x2="83.55" y2="85.82" gradientTransform="translate(-0.64 -49.05) rotate(-6.21)" xlink:href="#_ÂÁ_Ï_ÌÌ_È_ËÂÌÚ_4"/><linearGradient id="_ÂÁ_Ï_ÌÌ_È_ËÂÌÚ_56" x1="76.03" y1="56.28" x2="76.03" y2="23.57" gradientUnits="userSpaceOnUse"><stop offset="0.02" stop-color="#a272ec"/><stop offset="0.97" stop-color="#d36fff"/></linearGradient><linearGradient id="_ÂÁ_Ï_ÌÌ_È_ËÂÌÚ_46" x1="80.72" y1="51.03" x2="80.72" y2="28.92" gradientUnits="userSpaceOnUse"><stop offset="0.02" stop-color="#5b72ec"/><stop offset="0.97" stop-color="#84a1ff"/></linearGradient><linearGradient id="_ÂÁ_Ï_ÌÌ_È_ËÂÌÚ_77-2" x1="39.7" y1="56.69" x2="39.7" y2="41.09" xlink:href="#_ÂÁ_Ï_ÌÌ_È_ËÂÌÚ_77"/><linearGradient id="_ÂÁ_Ï_ÌÌ_È_ËÂÌÚ_77-3" x1="114.58" y1="103.43" x2="114.58" y2="102.54" xlink:href="#_ÂÁ_Ï_ÌÌ_È_ËÂÌÚ_77"/><linearGradient id="_ÂÁ_Ï_ÌÌ_È_ËÂÌÚ_91-2" x1="99.15" y1="124.94" x2="99.15" y2="73.85" xlink:href="#_ÂÁ_Ï_ÌÌ_È_ËÂÌÚ_91"/><linearGradient id="_ÂÁ_Ï_ÌÌ_È_ËÂÌÚ_101-3" x1="101.66" y1="118.64" x2="101.66" y2="81.03" xlink:href="#_ÂÁ_Ï_ÌÌ_È_ËÂÌÚ_101"/><linearGradient id="_ÂÁ_Ï_ÌÌ_È_ËÂÌÚ_92-2" x1="97.22" y1="105.37" x2="97.22" y2="51.02" xlink:href="#_ÂÁ_Ï_ÌÌ_È_ËÂÌÚ_92"/><linearGradient id="_ÂÁ_Ï_ÌÌ_È_ËÂÌÚ_118" x1="70.21" y1="79.37" x2="70.21" y2="65.28" gradientUnits="userSpaceOnUse"><stop offset="0" stop-color="#fff"/><stop offset="1" stop-color="#bdbfff"/></linearGradient><linearGradient id="_ÂÁ_Ï_ÌÌ_È_ËÂÌÚ_109" x1="71.83" y1="78.07" x2="71.83" y2="64.93" gradientUnits="userSpaceOnUse"><stop offset="0.01" stop-color="#634f90"/><stop offset="1" stop-color="#3b0643"/></linearGradient><linearGradient id="_ÂÁ_Ï_ÌÌ_È_ËÂÌÚ_101-4" x1="61.61" y1="57.09" x2="74.98" y2="57.09" xlink:href="#_ÂÁ_Ï_ÌÌ_È_ËÂÌÚ_101"/><linearGradient id="_ÂÁ_Ï_ÌÌ_È_ËÂÌÚ_29" x1="49.44" y1="89.13" x2="53.48" y2="89.13" gradientUnits="userSpaceOnUse"><stop offset="0.01" stop-color="#9775ba"/><stop offset="1" stop-color="#ffeadb"/></linearGradient><linearGradient id="_ÂÁ_Ï_ÌÌ_È_ËÂÌÚ_132" x1="39.23" y1="83.25" x2="58.81" y2="83.25" gradientUnits="userSpaceOnUse"><stop offset="0" stop-color="#ffeadb"/><stop offset="0.99"/></linearGradient><linearGradient id="_ÂÁ_Ï_ÌÌ_È_ËÂÌÚ_139-3" x1="76.14" y1="56.28" x2="76.14" y2="23.63" xlink:href="#_ÂÁ_Ï_ÌÌ_È_ËÂÌÚ_139"/><linearGradient id="_ÂÁ_Ï_ÌÌ_È_ËÂÌÚ_3" x1="92.84" y1="54.72" x2="92.84" y2="29.37" gradientUnits="userSpaceOnUse"><stop offset="0.02" stop-color="#ff9fa6"/><stop offset="1" stop-color="#ff88c7"/></linearGradient><linearGradient id="_ÂÁ_Ï_ÌÌ_È_ËÂÌÚ_127-2" x1="93.14" y1="49.41" x2="93.14" y2="29.37" xlink:href="#_ÂÁ_Ï_ÌÌ_È_ËÂÌÚ_127"/><linearGradient id="_ÂÁ_Ï_ÌÌ_È_ËÂÌÚ_139-4" x1="102.56" y1="118.62" x2="102.56" y2="51.02" xlink:href="#_ÂÁ_Ï_ÌÌ_È_ËÂÌÚ_139"/><linearGradient id="_ÂÁ_Ï_ÌÌ_È_ËÂÌÚ_2-2" x1="101.85" y1="93.21" x2="101.85" y2="62.91" xlink:href="#_ÂÁ_Ï_ÌÌ_È_ËÂÌÚ_2"/></defs><g class="cls-1"><g id="Layer_1" data-name="Layer 1"><path class="cls-2" d="M147.88,88.63,159.4,38.85h16.49l.5,29.51h1.35l14.15-29.51h17.64L198,88.63H187l8.1-35.13H194L180,82.08h-11.1l-.71-28.58h-1.21l-8.1,35.13Z"/><path class="cls-2" d="M211.87,88.63l-5-6.55,2.7-11.59L216.35,65H231l.71-3.06-1.06-1.35H215.43l1.92-8.25h20.12l5.41,7-6.76,29.3h-8.39l.64-2.63h-.78L224,88.63Zm6.76-8.11h6.76l2.34-1.64,1.64-7h-8.46L219.55,73,218,79.67Z"/><path class="cls-2" d="M241.46,102.85l2-8.61h17l1.35-1.06,1.5-6.4h-.43l-2.7,1.85h-10l-6-7.75,5.12-22,8.1-6.54h24.47l-10.32,44.8-7.18,5.76ZM256.74,80h5.55l3-2,3.91-17h-8L259,62.81l-3.56,15.43Z"/><path class="cls-2" d="M280.57,88.63,289,52.29h10.66l-8.39,36.34Zm9.74-42,1.85-7.82h10.52l-1.85,7.82Z"/><path class="cls-2" d="M305.6,88.63l-6-7.75,5.12-22,8.11-6.54h20l-2,8.67H316.69l-2.28,1.85-3.55,15.43L312.21,80H326.5l-2,8.68Z"/><path class="cls-2" d="M336.53,88.63l-6-7.75,5.12-22,8.1-6.54H361L367,60l-5.05,22-8.11,6.62ZM343.14,80h6.76l2.28-1.85,3.55-15.43L354.45,61h-6.83l-2.27,1.85-3.56,15.43Z"/><path class="cls-2" d="M367,88.63l8.39-36.34h8.46l-.64,2.49H384l3.56-2.49h9.67l-2,8.89h-9L383.53,63l-5.9,25.67Z"/><path class="cls-2" d="M392.14,88.63l8.39-36.34H409l-.64,2.49h.78l3.56-2.49H424l5.76,7.39-6.69,28.95H412.48l6-26.31L417.45,61h-6l-2.63,1.78-6,25.89Z"/><path class="cls-2" d="M447.82,88.63l2.06-9h7.18l7.4-31.86h-7.18l2.06-9h25.81l-2.13,9h-7.18l-7.33,31.86h7.18l-2.06,9Z"/><path class="cls-2" d="M479.89,88.63l8.39-36.34h8.46l-.64,2.49h.78l3.56-2.49h11.31l5.76,7.39-6.69,28.95H500.23l6-26.31L505.2,61h-6l-2.63,1.78-6,25.89Z"/><path class="cls-2" d="M524.83,88.63l-5.76-7.47,6.69-28.87h10.66L530.31,78.6,531.44,80h5.27l2.63-1.78,6-25.88H556l-8.39,36.34H539.2l.56-2.49H539l-3.48,2.49Z"/><path class="cls-3" d="M128,64a63.7,63.7,0,0,1-13.26,39l-.15.2-.18.22h0c-.89,1.14-1.81,2.24-2.78,3.31l-.09.11c-.46.51-.93,1-1.41,1.51l-.86.88a64.39,64.39,0,0,1-10.56,8.54l-.71.45-.62.39,0,0A63.69,63.69,0,0,1,86,124.13c-.77.29-1.55.55-2.33.81A63.94,63.94,0,0,1,64,128c-.73,0-1.45,0-2.18,0s-1.73-.07-2.58-.14-1.58-.12-2.36-.21-1.72-.21-2.57-.34L53,127.05a64,64,0,0,1-11.09-3c-.64-.24-1.28-.48-1.9-.74l-1.34-.56c-.91-.39-1.82-.81-2.71-1.25-.71-.35-1.42-.71-2.12-1.08l-.52-.29-.55-.3c-1.1-.62-2.19-1.27-3.25-1.95,0,0,0,0,0,0-.34-.22-.68-.43-1-.66A64,64,0,1,1,128,64Z"/><path class="cls-4" d="M59.27,112.46h0a62.51,62.51,0,0,0-3.06,7.83c-.65,2-1.32,4.37-1.89,7L53,127.05a64,64,0,0,1-11.09-3c.47-.36.93-.73,1.36-1.11s1-.87,1.46-1.27a65.43,65.43,0,0,1,9-6.46,39.79,39.79,0,0,1,5.11-2.58h0l.48-.19Z"/><path class="cls-5" d="M74.12,90.13l-1.59,2.39h0l-.16.24-.6.9-.16.24-.77,1.15-.28.42-3.2,4.78h0a11.43,11.43,0,0,1-6.67,3.7c-1.17.18-3.15.26-5.52.41-2.16.14-4.66.31-7.18.67l-.17,0a17.67,17.67,0,0,1,3.08-2.68,12.88,12.88,0,0,1-3.11-.16c-1.22.94-7.66,2.09-11.05,5-3.08,2.64-6,8.05-7.27,10.67-.34-.22-.68-.43-1-.66a30.91,30.91,0,0,1,7.22-11.9,17.93,17.93,0,0,1,5.64-3.71h0a25.57,25.57,0,0,1,3.91-1.29C49.48,99.24,54,99,57.81,98.57c.7-.08,1.39-.17,2-.27h0c.37,0,.73-.12,1.08-.18h0a16.59,16.59,0,0,0,3-.82,27,27,0,0,0,7.51-4.48l.47-.42A19.94,19.94,0,0,0,74.12,90.13Z"/><path class="cls-6" d="M66.23,102.9c-.32.74-.63,1.49-.94,2.23-.05.11-.09.22-.14.32h0l-.75,1.8h0a10.37,10.37,0,0,0-1.5,1.12l0,0h0l-.06,0-.07.06-.17.16-.07.06-.32.3-.15.15a.94.94,0,0,0-.1.1,1.14,1.14,0,0,0-.11.11l0,0-.11.11c-.44.45-.92,1-1.42,1.61v0a3.25,3.25,0,0,0-.23.29l-.25.32c-.16.22-.33.45-.49.69h0c-.47.68-.95,1.42-1.42,2.25l-.44.79,0,.06-.15.28a35.08,35.08,0,0,0-2.1,5.11c-.77,2.32-1.43,4.35-2.17,6.09a64,64,0,0,1-11.09-3c-.64-.24-1.28-.48-1.9-.74l-1.34-.56c-.91-.39-1.82-.81-2.71-1.25-.71-.35-1.42-.71-2.12-1.08,3.16-1.65,6.43-3.38,9.63-5.09,4.55-2.43,8.95-4.82,12.65-6.85C62.07,105.22,66.23,102.9,66.23,102.9Z"/><path class="cls-7" d="M68.55,97.38l-1.2,2.87h0l-.09.21-.09.21-.93,2.22c-.32.74-.63,1.49-.94,2.23-.05.11-.09.22-.14.32h0c-.24.11-3.78,1.84-6.36,7.19h0c-.2.41-.39.84-.58,1.29-.09.23-.19.45-.29.66l-.06.12-.44.79,0,.06-.15.28c-2.51,4.09-7,6.12-14,7.11-1,.14-2.12.27-3.26.37l-1.34-.56c-.91-.39-1.82-.81-2.71-1.25-.71-.35-1.42-.71-2.12-1.08l-.52-.29-.55-.3L34,119c5.32-3.44,9.59-9.5,13.37-13.54h0c.13-.15.26-.28.4-.42a17.67,17.67,0,0,1,3.08-2.68h0l.3-.19,0,0,.52-.3a33.14,33.14,0,0,1,7.44-3h0l1.42-.36a44.37,44.37,0,0,1,5.12-.9h0c1.66-.19,2.72-.22,2.82-.22Z"/><path class="cls-8" d="M71.88,92.4l-.07.39-.09.49-.08.42,0,.2-.77,1.15-.28.42-3.2,4.78h0l-.09.21-.09.21-.93,2.22h0l-.93,2.22c-.05.11-.09.22-.14.32h0l-.75,1.8h0a10.37,10.37,0,0,0-1.5,1.12l0,0h0l-.06,0-.07.06-.17.16-.07.06-.32.3-.15.15a.94.94,0,0,0-.1.1,1.14,1.14,0,0,0-.11.11l0,0-.11.11c-.44.45-.92,1-1.42,1.61v0a3.25,3.25,0,0,0-.23.29l-.25.32c-.16.22-.33.45-.49.69h0a62.51,62.51,0,0,0-3.06,7.83c-.65,2-1.32,4.37-1.89,7L53,127.05a64,64,0,0,1-11.09-3c-.64-.24-1.28-.48-1.9-.74l-1.34-.56c2.22-.33,4.26-.64,6.06-1.08a15.14,15.14,0,0,0,4.93-2,14,14,0,0,0,4-4.49,18.12,18.12,0,0,0,2.41-6.73c.25-1.91,0-3.45-.79-4l-.13-.08C52.78,102.81,48,105,48,105a5.06,5.06,0,0,1-.57.44c.13-.15.26-.28.4-.42a17.67,17.67,0,0,1,3.08-2.68,12.88,12.88,0,0,1-3.11-.16l0,0a.57.57,0,0,0,.11-.11A.47.47,0,0,0,48,102c0-.12,0-.25-.24-.37a3.86,3.86,0,0,0-1.57-.45,17.25,17.25,0,0,0-4.82.44,25.57,25.57,0,0,1,3.91-1.29C49.48,99.24,54,99,57.81,98.57c.7-.08,1.39-.17,2-.27h0c.37,0,.73-.12,1.08-.18h0a16.59,16.59,0,0,0,3-.82,27,27,0,0,0,7.51-4.48Z"/><path class="cls-9" d="M58.24,123c.32,1.62.72,3.27,1,4.86-.79,0-1.58-.12-2.36-.21-.06-2.85-.67-5.08-.68-7.31a9.65,9.65,0,0,1,1.06-4.51,2.26,2.26,0,0,0,.11-.22l0-.06.5-.91c.44-.78.91-1.5,1.36-2.14l.5-.69.25-.32c.08-.1.15-.2.23-.29v0c.53-.65,1-1.19,1.42-1.61l.11-.11,0,0,.11-.11a.94.94,0,0,1,.1-.1l.15-.15.32-.3.07-.06.17-.16.07-.06.06,0h0l0,0h0C62.73,108.58,56.86,116,58.24,123Z"/><path class="cls-10" d="M52.34,47.86c-5.85,4.66-8.21,13.44-8.21,13.44a.11.11,0,0,1,0,0l0-.07c-.64-1-5.72-9.3-2.93-13.56a4.06,4.06,0,0,1,1-1.08,32.12,32.12,0,0,0,6.09-5.86c.29-.39.41-.59.41-.59l2.27,4.76Z"/><path class="cls-11" d="M52.34,47.86c-5.85,4.66-8.21,13.44-8.21,13.44a.11.11,0,0,1,0,0l0-.07c-.19-.45-.86-2.39.09-6.53,1.1-4.8,4-9.31,1.73-9.13a11,11,0,0,0-4.75,2.1,4.06,4.06,0,0,1,1-1.08,32.12,32.12,0,0,0,6.09-5.86l2.68,4.17Z"/><path class="cls-12" d="M110.13,108.36l-.86.88a64.39,64.39,0,0,1-10.56,8.54l-.71.45-.62.39,0,0A63.69,63.69,0,0,1,86,124.13c-.77.29-1.55.55-2.33.81A63.94,63.94,0,0,1,64,128c-.73,0-1.45,0-2.18,0a30.29,30.29,0,0,1-.75-10.1c.41-3.48,1.06-5.26,3.32-10.6h0c.24-.58.5-1.19.76-1.8h0c0-.1.09-.21.14-.32.31-.74.62-1.49.94-2.23l.93-2.22.09-.21.09-.21c.43-1,.85-2,1.21-2.88s.59-1.43.81-1.94c.3-.71.47-1.13.47-1.13.41-.12.8-.25,1.2-.39h0l.61-.22.12,0q1.21-.47,2.37-1h0A40.57,40.57,0,0,0,87.29,81.77h0a65.71,65.71,0,0,0,6.21-9h0a57.8,57.8,0,0,0,2.9-5.66s.3.79.81,2.17c.05.16.12.33.18.5h0c.07.18.13.36.2.55.86,2.31,2.09,5.7,3.47,9.58.16.43.31.87.47,1.31h0c.32.91.65,1.84,1,2.79,0,.06,0,.13.07.2.17.49.34,1,.52,1.49a1.18,1.18,0,0,0,.07.2c.23.68.46,1.36.7,2,.7,2.06,1.4,4.14,2.07,6.2s1.25,3.85,1.81,5.67c.91,3,1.7,5.71,2.25,8C110.05,108,110.09,108.18,110.13,108.36Z"/><path class="cls-13" d="M69.45,95.41a173.89,173.89,0,0,0,20.9,0c8.52-.76,11.64-16,11.64-16L98,68.52Z"/><path class="cls-14" d="M110.13,108.36l-.86.88a64.39,64.39,0,0,1-10.56,8.54l-.71.45-.62.39,0,0A63.69,63.69,0,0,1,86,124.13c1.3-2.74,2.7-5.53,4-8,2.27-4.43,4.1-7.77,4.1-7.77-13.28,2.94-27.78-5.47-27.78-5.47l.93-2.22.09-.21.09-.21c.43-1,.85-2,1.21-2.88s.59-1.43.81-1.94c.3-.71.47-1.13.47-1.13.41-.12.8-.25,1.2-.39h0l.61-.22.12,0q1.21-.47,2.37-1h0A40.57,40.57,0,0,0,87.29,81.77h0a65.71,65.71,0,0,0,6.21-9h0a57.8,57.8,0,0,0,2.9-5.66s.3.79.81,2.17c.05.16.12.33.18.5h0c.07.18.13.36.2.55.86,2.31,2.09,5.7,3.47,9.58.16.43.31.87.47,1.31h0c.32.91.65,1.84,1,2.79,0,.06,0,.13.07.2.17.49.34,1,.52,1.49a1.18,1.18,0,0,0,.07.2c.23.68.46,1.36.7,2,.7,2.06,1.4,4.14,2.07,6.2s1.25,3.85,1.81,5.67c.91,3,1.7,5.71,2.25,8C110.05,108,110.09,108.18,110.13,108.36Z"/><path class="cls-15" d="M88.65,90.35c-5.55,3.44-16.25,4-19.2,5.06s-8.28,6.18-11.19,6.87a13.64,13.64,0,0,1-6.1-.23s-3.64.54-4.84,0-7.78-6.91-8.08-12.33c-.27-4.83,6.08-9.57,6.36-11.91s-2-11.45-1.44-17S52.38,43.91,63.5,40.57c15.16-4.53,30,.72,33.44,14.21S95,86.41,88.65,90.35Z"/><path class="cls-16" d="M88.65,90.35c-5.55,3.44-16.25,4-19.2,5.06s-8.28,6.18-11.19,6.87a13.64,13.64,0,0,1-6.1-.23s-3.64.54-4.84,0c10.09-1,14.39-6.87,16.6-8.36s17.57.24,20.7-4.57,6-19.63-.8-26-26-7.7-32-6.8a13.23,13.23,0,0,0-7.61,4.52c.54-5.54,8.22-16.89,19.34-20.23,15.16-4.53,30,.72,33.44,14.21S95,86.41,88.65,90.35Z"/><path class="cls-17" d="M64.59,46.11a12.79,12.79,0,0,1-13.43,5,12.34,12.34,0,0,1-3.22-9.81l.12-.78s-5.68-3.14-3.77-12.7c0,0-5.39-9.78-3.81-19.52l.12.08c.94.62,7,4.93,6.94,10,0,0,10.62,5.19,7.83,13.33C55.37,31.67,64.47,39.16,64.59,46.11Z"/><path class="cls-18" d="M64.59,46.11a12.79,12.79,0,0,1-13.43,5s10.19-4.8,9.64-9.82-4.87-7-6.66-6.63-6.2,6.64-6.2,6.64l.12-.78s6.39-7.89,5.76-12S49,20.37,47.69,21,44.54,27,44.31,27.7c.24-.86,2.51-9,1.85-12.38s-4.79-6.42-5.56-7c.94.62,7,4.93,6.94,10,0,0,10.62,5.19,7.83,13.33C55.37,31.67,64.47,39.16,64.59,46.11Z"/><path class="cls-19" d="M81.35,44.3s1.53-.79,3.12-4.48S93.84,26.65,104,25.9c0,0-1.93,12-3.49,18.39s-8,10-10.17,10.25S80.72,54.57,81.35,44.3Z"/><path class="cls-20" d="M90.36,55.17c-7.89,3.4-25.61-1.52-27.46-7.67a28.64,28.64,0,0,1-1-5.3c-.65-6.51.08-14.74,3.18-16.66,4.06-2.5,9.25-1.91,9.25-1.91C79,29.15,84.28,34.39,84.85,35c-.57-.49-5.19-4.41-5.78-4.33s-4.92,4.75-1.34,14.51A14.68,14.68,0,0,0,90.36,55.17Z"/><path class="cls-21" d="M86.45,36.6s-4-4.17-7.56-7.3S71.27,43.21,81.35,51c0,0-3.12-13-.63-15.38s5,1.92,5,1.92Z"/><path class="cls-22" d="M47.93,41.09s-.7,1.59-8.7,3.2-8.32,7.48-7.42,12.4c0,0,1.07-6,5.95-8.46S47.09,44.68,47.93,41.09Z"/><path class="cls-23" d="M114.74,103l-.15.2-.18.22c.1-.3.17-.53.21-.68l.06-.21Z"/><path class="cls-24" d="M86.45,36.6s-3.28-3.34-5.56-3.34c-3.09,0-.24,14.37-.24,14.37S83.7,40.45,86.45,36.6Z"/><path class="cls-25" d="M114.62,102.75l0,.46-.18.22h0c-.89,1.14-1.81,2.24-2.78,3.31l-.09.11c-.46.51-.93,1-1.41,1.51l-.86.88a64.39,64.39,0,0,1-10.56,8.54l-.71.45-.62.39,0,0A63.69,63.69,0,0,1,86,124.13c-.77.29-1.55.55-2.33.81a26.19,26.19,0,0,1,1.25-2.48,33.21,33.21,0,0,1,5-6.32c2.44-2.54,5.19-5.14,7.56-7.92h0c2.54-3,4.65-6.17,5.46-9.74a38,38,0,0,0,1-7.68c0-1,0-2,0-2.84a32.17,32.17,0,0,0-.41-3.49h0l-.06-.29a2,2,0,0,0-.05-.26,14.19,14.19,0,0,0-.41-1.67l.4-3.61h0l.52-4.77a0,0,0,0,0,0,0c.12.16,1,1.34,2.29,3.2.92,1.38,2,3.13,3.14,5.12a41.9,41.9,0,0,1,4.78,12.35A33.79,33.79,0,0,1,114.62,102.75Z"/><path class="cls-26" d="M105.94,94.15c-.44,10.56-5.36,19.87-7.94,24.08l-.62.39,0,0a16.41,16.41,0,0,0,.35-6.81,28.5,28.5,0,0,1-.22-3.62,62.27,62.27,0,0,1,1-10.85.31.31,0,0,0,0-.1h0l0,0h0l.4-.68h0l0-.07.39-.69s0,0,0,0c.22-.4.43-.8.62-1.19,0-.06.06-.11.08-.16h0l.08-.17v0a38.18,38.18,0,0,0,2.93-8.27c.11-.51.21-1,.29-1.45,0-.23.08-.44.11-.65a22.49,22.49,0,0,0,.29-2.69h0V81h0c.31.8.58,1.6.82,2.4A32.64,32.64,0,0,1,105.94,94.15Z"/><path class="cls-27" d="M103.86,81v.07c-.12,1-.26,2-.46,3.06a39.62,39.62,0,0,1-3.14,10l-.12.24c-.21.44-.45.89-.7,1.35l-.45.81c-.12.22-.24.43-.38.65h0l-.09.15a22.77,22.77,0,0,1-8.1,8h0c.25-.52,8.87-18.77,7.67-30.06-.32-3-.69-6-1-8.8l-.09-.62c-.86-6.62-1.7-12-1.9-13.28l0-.29L96.49,51s3.65,15.2,6.45,19.74a8.26,8.26,0,0,1,.93,3.1A31.09,31.09,0,0,1,103.86,81Z"/><path class="cls-28" d="M64.49,79.09a16.36,16.36,0,0,0,8.59.28c4.83-1.11,5.78-6.48,5.78-6.48A39.41,39.41,0,0,1,64.49,79.09Z"/><path class="cls-28" d="M61.71,69.94A10.46,10.46,0,0,1,66,64c3.53-2.33,11.55.09,12.94,5.21C78.94,69.18,67.5,68.09,61.71,69.94Z"/><path class="cls-29" d="M62.69,78.21c1,1.16,5,1.71,9.4.41s6-3.71,6.49-4.76a11.81,11.81,0,0,0,.36-4.68,10.12,10.12,0,0,0-7.07-3.85c-3.5-.31-8.73,1-10.16,4.61C60.92,71.93,61.8,77.21,62.69,78.21Z"/><circle class="cls-30" cx="71.83" cy="71.5" r="6.57"/><circle class="cls-31" cx="72.05" cy="71.5" r="4.68" transform="translate(-22.03 33.4) rotate(-22.74)"/><path class="cls-32" d="M61.5,70.76s.71-3.6,7.13-4.63a12.15,12.15,0,0,1,10.31,3.05A10.29,10.29,0,0,0,83.33,66s-3,1.54-5,1a14.19,14.19,0,0,0-10-2A8.65,8.65,0,0,0,61.5,70.76Z"/><path class="cls-33" d="M61.93,76.34s.08,2.88.58,3a27.92,27.92,0,0,0,3.4.09S62.75,79.17,61.93,76.34Z"/><path class="cls-34" d="M66.32,73.5a.75.75,0,1,1-.75-.76A.76.76,0,0,1,66.32,73.5Z"/><path class="cls-35" d="M62.72,55.42c-1.17.09-1.67,2.28-.21,3s7.25,0,8.71,0,3.44.57,3.75.31S68.84,55,62.72,55.42Z"/><path class="cls-36" d="M63.92,93.69a31.41,31.41,0,0,1-3,4.43h0c-.1.13-.21.25-.32.38a11.68,11.68,0,0,1-2.54,2.29,14.24,14.24,0,0,1-5.2,1.43c-.68.08-1.36.13-2,.16h0a12.88,12.88,0,0,1-3.11-.16,1.34,1.34,0,0,1-.44-.17h0l.57,0a21.32,21.32,0,0,0,3.84-.22,21.75,21.75,0,0,0,3.87-.93,11.92,11.92,0,0,0,3.57-2.07h0c.23-.18.45-.37.66-.56h0A26.66,26.66,0,0,0,63.92,93.69Z"/><path class="cls-36" d="M49.44,90.78S49,89,49.92,88.15s3.56-.68,3.56-.68A4.56,4.56,0,0,0,49.44,90.78Z"/><path class="cls-37" d="M49.44,90.78s3.92.47,4-3.31C53.48,87.47,49.58,87.51,49.44,90.78Z"/><path class="cls-38" d="M39.23,88.56s7.59-1,12.17-3,7.54-6.91,7.41-7.39-12.49-.14-12.49-.14S40.2,84.49,39.23,88.56Z"/><path class="cls-39" d="M90.36,55.17c-7.89,3.4-25.61-1.52-27.46-7.67a28.64,28.64,0,0,1-1-5.3C63.56,55.38,76,53.11,76,53.11s-4.89-3.94-4.36-12.67a97.8,97.8,0,0,1,2.69-16.81C79,29.15,84.28,34.39,84.85,35c-.57-.49-5.65-5.5-6.22-5.37C77,30,73.4,35.5,77,45.26A15.16,15.16,0,0,0,90.36,55.17Z"/><path class="cls-40" d="M101.7,37.72a85.7,85.7,0,0,1-2,8.86c-1,3-6.88,8.8-12.11,8.08-4.21-.57-4.66-3-4.66-3s.19-.83.57-2.15a.24.24,0,0,0,0-.07c1-3.38,3.35-9.85,7.22-13.72,5.43-5.43,11-6.57,11.81-6.28C103,29.57,102.46,33.56,101.7,37.72Z"/><path class="cls-41" d="M101.7,37.72c-.38-1-1.49-3.47-3-3.68-1.93-.27-11.31,5.29-15.13,15.37,1-3.38,3.35-9.85,7.22-13.72,5.43-5.43,11-6.57,11.81-6.28C103,29.57,102.46,33.56,101.7,37.72Z"/><path class="cls-42" d="M114.74,103l-.15.2-.18.22h0c-.89,1.14-1.81,2.24-2.78,3.31,1.43-5.39,1.66-10.63,0-10.61-1.27,0-2.73,1.82-3.9,3.69a38.53,38.53,0,0,0-2.23,4.19,47.92,47.92,0,0,1-6.81,13.77l-.71.45-.62.39a110.64,110.64,0,0,0,5.32-14.12c2.57-8.69,2.57-13.91,1.21-13.71-1.19.16-4.45,5.1-5.23,6.3,0,0,0,0,0,0l0,.07h0v0h0l0,0h0l0,.06v0h0a20.24,20.24,0,0,1-8,8h0l0,0h-.06c5.76-4.4,10.78-13.31,12.1-21.1a1.87,1.87,0,0,1,0-.25,20.84,20.84,0,0,0,.22-5.06h0A19.26,19.26,0,0,0,97.9,67.38h0a8.15,8.15,0,0,0-.92-.87l-.09-.62L95,52.94v0l-.09-.58,0,0h0l.85-.7.47-.4h0l.17-.14h0v0h0v0h0v0a.35.35,0,0,1,0,.06s0,0,0,0v0s0,0,0,.05a.43.43,0,0,0,0,.11.29.29,0,0,1,0,.09l.06.23s0,.11,0,.17a1.46,1.46,0,0,1,.05.2c0,.12.07.25.1.39s0,.09,0,.14v0l0,.12h0a2.81,2.81,0,0,1,.08.31s0,.11,0,.16,0,.12,0,.18a1.33,1.33,0,0,1,.05.19,1.46,1.46,0,0,1,0,.2,1.33,1.33,0,0,1,0,.19q.15.54.3,1.14c0,.11.07.23.1.35s.13.47.19.71.07.25.1.38.11.37.16.57.07.25.11.38l.09.31c0,.1,0,.19.08.29.07.26.15.53.23.8s.07.25.1.37.07.24.11.36.05.17.07.26.14.44.2.67a1.72,1.72,0,0,0,.07.21c0,.19.11.37.17.56l0,.06c0,.14.08.28.13.42s.1.32.14.48l.09.27a2.76,2.76,0,0,1,.08.27h0v0l0,0v0a.56.56,0,0,1,0,.12,1.72,1.72,0,0,0,.07.21c0,.14.09.28.13.41l0,.11.12.35.12.36c0,.06,0,.13.07.2l.08.24c.05.13.09.25.13.37s0,.13.07.2.13.36.2.55h0l.12.32,0,.12c0,.1.07.2.11.3l.21.54c.07.18.14.35.2.52s.1.23.14.34a1.11,1.11,0,0,1,.07.16l.14.32c0,.1.09.21.14.31s.07.14.1.22l.15.32.16.31.06.13a.75.75,0,0,1,.07.12c0,.07.07.13.1.19l.1.17h0a.61.61,0,0,1,.07.1l.06.11.15.27a1,1,0,0,1,.07.15l.07.14h0a.61.61,0,0,0,0,.12.5.5,0,0,0,0,.13l0,.07,0,.07s0,.09,0,.14a.36.36,0,0,1,0,.11h0l0,.09.05.17v0a1.6,1.6,0,0,0,0,.21l.06.24c0,.07,0,.13,0,.2.06.3.12.62.17,1,.12.16,1,1.34,2.29,3.2.92,1.38,2,3.13,3.14,5.12a41.9,41.9,0,0,1,4.78,12.35,33.79,33.79,0,0,1,.54,8.22l.06-.21Z"/><path class="cls-43" d="M99.79,62.91a17.07,17.07,0,0,0,8.73,9.71c6.72,3,6.72,8.6-1.88,10.3S90.35,93.21,90.35,93.21,94,85.1,99.44,81c4-3,9-4.24,8.32-6.21C107.25,73.2,101.45,73.6,99.79,62.91Z"/><path class="cls-44" d="M74.52,82.7c-1.11-1.07,5.39-7,7.61-6.45s1.12,5.41-1.51,6.45S75.34,83.49,74.52,82.7Z"/><path class="cls-45" d="M47.76,106.18a33.66,33.66,0,0,1-4.34,9.17,18.16,18.16,0,0,1-3.21,3.56,19.23,19.23,0,0,1-4.3,2.61c-.71-.35-1.42-.71-2.12-1.08l-.52-.29c1.26-.82,2.63-1.76,4-2.81C42.91,113.24,47.76,106.18,47.76,106.18Z"/><path class="cls-45" d="M47,22.62a53.8,53.8,0,0,0-1.19,7.78c-.37,4.45,2,9.22,2,9.22s-4.08-3.89-3.38-8.95A21.54,21.54,0,0,1,47,22.62Z"/><path class="cls-45" d="M40.6,8.34S39.49,19.4,44.31,27.7C44.31,27.7,43,14.42,40.6,8.34Z"/><path class="cls-45" d="M52.55,37s-3,3.09-3.76,5.33S49.84,48,49.84,48A25.15,25.15,0,0,1,52.55,37Z"/><path class="cls-45" d="M68.63,24.65a7.52,7.52,0,0,0-4.42,2.67c-1.51,2.17-4.14,14.94.9,21.57a30.2,30.2,0,0,1-.9-15.63C66.09,25,68.63,24.65,68.63,24.65Z"/><path class="cls-45" d="M44.16,46.5a4.08,4.08,0,0,0-3,3.72c-.48,3.27,1.51,7.16,1.51,7.16A15.68,15.68,0,0,1,44.16,46.5Z"/><path class="cls-45" d="M45.14,61.3a36.93,36.93,0,0,0,0,5.21c.19,3.31,1.41,10.48,1.18,11.56s-6.06,7.11-6.62,10.49,6,10.93,6,10.93-4.27-7.77-3.56-11.44,6.15-7.93,6.36-10.14S45,69.5,45.14,61.3Z"/><path class="cls-32" d="M76.73,67.56a8.31,8.31,0,0,0,4.58-3.42A22.24,22.24,0,0,1,75,66.75Z"/><path class="cls-45" d="M112.79,99.17a53.63,53.63,0,0,1-1.25,7.68c-.46.51-.93,1-1.41,1.51l-.86.88c.26-.49.51-1,.73-1.44A30.83,30.83,0,0,0,112.79,99.17Z"/><path class="cls-34" d="M44.93,27.8S44,31.47,44.38,33C44.38,33,47.17,31.75,44.93,27.8Z"/><path class="cls-34" d="M48.74,42.47a5.15,5.15,0,0,1,2-2.8S51.22,42.53,48.74,42.47Z"/><path class="cls-34" d="M41.06,8.58S42.9,12.09,42.82,15a10.84,10.84,0,0,1-1.08,4.64S39.74,13.71,41.06,8.58Z"/><path class="cls-46" d="M68.3,67.12l.33,3.38A17.55,17.55,0,0,0,76.71,72l.59-3.47S74.08,65.23,68.3,67.12Z"/></g></g></svg>